<?xml version="1.0" standalone="no"?><!DOCTYPE svg PUBLIC "-//W3C//DTD SVG 1.1//EN" "http://www.w3.org/Graphics/SVG/1.1/DTD/svg11.dtd"><svg t="1616493197256" class="icon" viewBox="0 0 1024 1024" version="1.1" xmlns="http://www.w3.org/2000/svg" p-id="1348" xmlns:xlink="http://www.w3.org/1999/xlink" width="200" height="200"><defs><style type="text/css"></style></defs><path d="M241.664 717.312l680.96 220.16c16.896 5.632 32.256-11.776 24.576-28.16L644.608 269.824c-7.68-16.384-31.232-15.872-37.888 1.024-40.448 99.328-155.136 333.312-366.08 407.04-18.432 6.656-17.92 33.28 1.024 39.424z" fill="#FFFFFF" p-id="1349"></path><path d="M928.768 945.664c-3.072 0-5.632-0.512-8.704-1.536l-680.96-220.16c-11.776-3.584-19.456-14.336-19.456-26.624 0-12.288 7.168-23.04 18.944-26.624 208.384-73.216 322.048-306.176 361.472-402.944 4.096-10.752 13.824-17.408 25.6-17.92 11.776-0.512 21.504 6.144 26.624 16.384l302.592 639.488c5.12 10.24 3.072 22.016-4.096 30.72-6.656 6.144-14.336 9.216-22.016 9.216zM625.664 265.216c-5.632 0-10.24 3.072-12.288 8.192-39.936 98.816-156.16 336.384-370.688 411.648-7.68 2.56-8.192 10.24-8.192 12.288 0 4.608 2.56 10.24 9.216 12.288l680.96 220.16c5.12 1.536 10.24 0 13.312-3.584 3.584-4.096 4.096-9.216 2.048-13.824L637.44 272.896c-2.048-4.608-6.144-7.68-11.776-7.68z" fill="#2E66FF" p-id="1350"></path><path d="M720.384 446.464l-67.584-142.848-83.968 96.256c-44.544 81.408-113.152 179.2-210.944 242.176l-72.704 83.456 150.016 48.64 285.184-327.68z" fill="#C9E6FF" p-id="1351"></path><path d="M196.439962 714.804551a115.2 328.192 41.1 1 0 431.490594-494.626954 115.2 328.192 41.1 1 0-431.490594 494.626954Z" fill="#FFF152" p-id="1352"></path><path d="M230.912 733.696c-15.872 0-29.696-4.096-39.936-13.312-52.224-45.568 4.096-192 128-334.336 58.368-66.56 122.368-121.344 180.224-154.624 60.416-34.304 107.52-40.448 133.632-17.92 26.112 22.528 26.112 70.656 0.512 134.656-24.576 61.952-70.144 132.608-128.512 199.168-99.328 115.2-207.872 186.368-273.92 186.368z m361.984-517.632c-22.016 0-51.712 9.728-86.016 29.184-56.32 32.256-118.784 85.504-176.128 151.04-114.176 131.072-173.568 273.92-129.536 312.32 7.68 6.656 17.92 9.728 30.208 9.728 59.392 0 167.424-72.192 261.632-180.736 57.344-65.536 101.888-134.656 125.952-195.072 22.528-56.832 24.064-99.84 4.096-117.248-7.168-5.632-17.408-9.216-30.208-9.216z" fill="#2E66FF" p-id="1353"></path><path d="M295.424 354.304l115.712 31.232-30.72-116.224z" fill="#FFB5EC" p-id="1354"></path><path d="M194.56 269.312L126.976 170.496 74.752 278.528z" fill="#2E66FF" p-id="1355"></path><path d="M467.456 194.048l52.224-108.032-119.808 8.704zM729.088 867.84l123.392-141.312-68.096-143.36L578.56 819.2z" fill="#FFF152" p-id="1356"></path><path d="M579.584 819.712l205.824-235.52L716.8 439.296l-289.28 331.776z" fill="#FFB5EC" p-id="1357"></path></svg>