<?xml version="1.0" standalone="no"?><!DOCTYPE svg PUBLIC "-//W3C//DTD SVG 1.1//EN" "http://www.w3.org/Graphics/SVG/1.1/DTD/svg11.dtd"><svg t="1616493468578" class="icon" viewBox="0 0 1024 1024" version="1.1" xmlns="http://www.w3.org/2000/svg" p-id="1563" xmlns:xlink="http://www.w3.org/1999/xlink" width="200" height="200"><defs><style type="text/css"></style></defs><path d="M160.256 305.664l677.376-88.064c8.704-1.024 16.384 5.632 16.384 14.336v650.752c0 9.728-9.728 16.896-18.944 13.824l-677.376-220.16c-6.144-2.048-10.24-7.68-10.24-13.824V320c0-7.168 5.632-13.312 12.8-14.336z" fill="#FFF152" p-id="1564"></path><path d="M839.68 905.728c-2.56 0-4.608-0.512-7.168-1.024L155.136 684.032c-9.216-3.072-15.36-11.264-15.36-20.992v-343.04c0-11.264 8.192-20.48 19.456-22.016L836.608 209.92c6.144-1.024 12.8 1.024 17.408 5.12s7.68 10.24 7.68 16.896v650.752c0 7.168-3.584 13.824-9.216 17.92-3.584 3.584-8.192 5.12-12.8 5.12zM839.68 225.28h-1.024L161.28 313.344c-3.584 0.512-6.144 3.584-6.144 6.656v342.528c0 3.072 2.048 5.632 4.608 6.656l677.376 220.672c2.048 0.512 4.608 0.512 6.144-1.024 2.048-1.536 3.072-3.584 3.072-5.632V232.448c0-2.048-1.024-4.096-2.56-5.12-1.024-1.536-2.56-2.048-4.096-2.048z" fill="#2E66FF" p-id="1565"></path><path d="M167.936 311.296l686.592 224.256V232.96c0-9.216-8.192-16.384-17.408-14.848L168.448 305.664c-3.584 0.512-3.584 4.608-0.512 5.632z" fill="#FFFFFF" p-id="1566"></path><path d="M861.696 546.304l-696.32-227.328c-4.608-1.536-7.68-6.144-7.168-11.264 0.512-5.12 4.096-8.704 9.216-9.728l668.672-87.552c6.656-1.024 13.312 1.024 17.92 5.632 5.12 4.096 7.68 10.752 7.68 17.408v312.832z m-671.744-235.52l656.896 214.528v-291.84c0-2.048-1.024-4.096-2.56-5.632-1.536-1.536-3.584-2.048-6.144-2.048L189.952 310.784z" fill="#2E66FF" p-id="1567"></path><path d="M611.328 356.352a111.104 72.192 0 1 0 222.208 0 111.104 72.192 0 1 0-222.208 0Z" fill="#C9E6FF" p-id="1568"></path><path d="M152.064 430.592l697.344 228.864v105.984L152.064 552.96z" fill="#FFB5EC" p-id="1569"></path><path d="M854.528 772.096L146.944 556.544v-133.12l707.584 232.448v116.224zM157.184 548.864l687.104 209.408v-95.232l-687.104-225.28v111.104z" fill="#2E66FF" p-id="1570"></path><path d="M806.4 288.768c0 56.832-46.08 72.192-102.912 72.192s-102.912-15.36-102.912-72.192 46.08-162.304 102.912-162.304 102.912 105.472 102.912 162.304z" fill="#FFB5EC" p-id="1571"></path><path d="M703.488 368.128c-73.216 0-110.592-26.624-110.592-79.872 0-58.368 46.592-169.984 110.592-169.984S814.08 230.4 814.08 288.768c0 52.736-37.376 79.36-110.592 79.36z m0-234.496c-52.224 0-95.232 102.4-95.232 154.624 0 44.032 30.208 64.512 95.232 64.512s95.232-20.48 95.232-64.512c0-52.224-43.008-154.624-95.232-154.624z" fill="#2E66FF" p-id="1572"></path><path d="M686.08 186.88m-8.192 0a8.192 8.192 0 1 0 16.384 0 8.192 8.192 0 1 0-16.384 0Z" fill="#2E66FF" p-id="1573"></path><path d="M657.92 209.408m-8.192 0a8.192 8.192 0 1 0 16.384 0 8.192 8.192 0 1 0-16.384 0Z" fill="#2E66FF" p-id="1574"></path><path d="M666.112 243.2m-8.192 0a8.192 8.192 0 1 0 16.384 0 8.192 8.192 0 1 0-16.384 0Z" fill="#2E66FF" p-id="1575"></path></svg>